<svg version="1.1" xmlns="http://www.w3.org/2000/svg" width="1400" height="800" viewBox="0 0 1400 800">
  <!-- The defs section will be added to the SVG context of the application. -->
  <defs>
    <!-- Icons -->

    <!-- Turbine icon -->
    <g id="turbineIcon">
      <path d="M 15,16 h 13 v -1 l -8,-2 -1,1.5 h -4 z" transform="rotate(45,15,15)"/>
      <path d="M 15,16 h 13 v -1 l -8,-2 -1,1.5 h -4 z" transform="rotate(165,15,15)"/>
      <path d="M 15,16 h 13 v -1 l -8,-2 -1,1.5 h -4 z" transform="rotate(285,15,15)"/>
      <circle cx="15" cy="15" r="2.5"/>
      <path d="M 14,15 l -0.5,12 h 3 l -0.5,-12 z"/>
    </g>

    <!-- Map icon -->
    <path id="mapIcon"
      d="M 4,7 l 1,9 -1,10 7,-3 h 1 l 6,3 h 1 l 7,-3 -1,-9 1,-10 -7,3 h -1 l -6,-3 h -1 z M 5.5,8
      l 5.5,-2.5 v 3 h 1 v -3 l 6,3 v 5 h 1 v -5 l 5.5,-2.5 -1,8 1,8 -5.5,2.5 v -6 h -1 v 6 l -6,-3
      v -5 h -1 v 5 l -5.5,2.5 1,-8 z M 9,10 l -1,1 1.5,1.5 -1.5,1.5 1,1 1.5,-1.5 1.5,1.5 1,-1
      -1.5,-1.5 1.5,-1.5 -1,-1 -1.5,1.5 z M 14,15 l -1,1 2,1 1,-1 z M 17,16 l 1,1 2,-1 -1,-1 z
      M 20,14 l 1,1 1,-2 -1,-1 z"
    />

    <!-- Map icon inverted -->
    <path id="mapIconInverted"
      d="M 4,7 l 7,-3 v 4.5 h 1 v -4.5 l 6,3 v 6.5 h 1 v -6.5 l 7,-3 -1,10 1,9 -7,3 v -7.5 h -1 v 7.5 l -6,-3 v -6.5
      h -1 v 6.5 l -7,3 1,-10 z M 9,10 l -1,1 1.5,1.5 -1.5,1.5 1,1 1.5,-1.5 1.5,1.5 1,-1 -1.5,-1.5 1.5,-1.5 -1,-1
      -1.5,1.5 z M 14,15 l -1,1 2,1 1,-1 z M 17,16 l 1,1 2,-1 -1,-1 z M 20,14 l 1,1 1,-2 -1,-1 z"
    />

    <!-- House icon -->
    <path id="houseIcon"
      d="M 15,4 4,15 h 3 v 9 H 4 v 2 H 26 v -2 h -3 v -9 h 3 z M 9,16 h 4 l 0,8 H 9 Z m 6,0 H 21
      l 0,5 h -6 z"
    />

    <!-- Tree icon -->
    <path id="treeIcon"
      d="M 14,2 11,7 H 13 L 10,13 H 12 L 9,19 H 13 v 5 H 8 v -2 h 2 L 9,19 7,13 4,22 h 2 v 2 H 4
      v 2 H 26 v -2 h -3 v -4 l 3,-4 -1,-6 -3,-6 -3,6 -1,6 3,4 v 4 h -6 v -5 h 4 L 16,13 h 2 L 15,7
      h 2 z"
    />

    <!-- Wind icon -->
    <path id="windIcon"
      d="m 6.5,16.1 c 0.9,-1.3 2.1,-1.8 3.4,-1.9 2.7,-0.2 5,1 7.4,1.1 1.7,0.1 4,-1.1 4.2,-3.1
      0.2,-1.7 -0.6,-3.2 -1.9,-3.6 -1.4,-0.5 -3,0.1 -4.5,1.2 0.6,-1.3 1.4,-2.4 2.9,-3.2 1.5,-0.8
      3.7,-0.7 5.2,0.3 1.5,1 2.7,3.5 2.6,5.7 -0.1,2.2 -1.2,3.6 -3.3,4.4 -2.1,0.8 -5.1,0.8 -7.1,0.2
      -2,-0.6 -3,-1.5 -4.6,-1.7 -1.4,-0.1 -2.9,0 -4.5,0.6 z M 3.9,14.4 C 4.6,12.6 6.1,11.4 7.6,11.1
      8.8,10.9 10.3,10.7 10.8,9.5 11.3,8.4 11.2,7.2 10,6.3 9.1,5.6 7.5,6.4 6.2,8 6.6,6.2 7.5,5
      8.6,4.4 9.8,3.8 11.7,4.2 12.6,5.1 13.6,6 13.9,7.5 13.9,8.6 13.8,9.5 13.6,11.2 12,11.9
      10.5,12.6 9.5,12.1 8,12.3 6.5,12.5 5.4,13 3.9,14.4 Z m 6.3,2.5 c 2.7,1.8 4.5,2.6 5.9,2.4
      1.8,-0.2 4.6,-0.8 6.2,0.3 1.6,1 2.2,2.5 1.3,4.1 -0.6,1 -2.1,2.1 -3.5,2.1 -1.3,0.1 -2.9,-0.7
      -3.9,-2.4 2.1,0.9 3.8,1 4.4,-0.2 0.6,-1.1 -0.4,-2.2 -1.6,-2.5 -1.4,-0.3 -3.1,0.2 -4.3,-0.1
      -1.5,-0.3 -2.8,-1.4 -4.5,-3.7 z m -4.4,0.7 c 1.6,0.1 2.8,0.5 3.8,1.4 0.9,0.7 1.6,2.4 1.1,4
      -0.4,1.3 -1.7,2.1 -3.3,2 C 6.2,24.8 5.1,23.5 4.6,22.1 5.8,22.8 6.7,23 7.5,22.4 8.3,21.9
      8.7,20.8 8.3,19.6 8,18.9 7,18.1 5.7,17.5 Z"
    />

    <!-- Gear icon -->
    <g id="gearIcon">
      <path
        d="M 6,15 a 9,9,0,0,0,18,0 9,9,0,0,0,-18,0 z M 9,15 a 6,6,0,0,1,12,0 6,6,0,0,1,-12,0 z
        M 12,15 a 3,3,0,0,0,6,0 3,3,0,0,0,-6,0 z"/>
      <path
        d="M 23,12.5 l 4,1 v 3 l -4,1 z M 17.5,23 l -1,4 h -3 l -1,-4 z M 7,17.5 l -4,-1 v -3
        l 4,-1 z M 12.5,7 l 1,-4 h 3 l 1,4 z"/>
      <path transform="rotate(45,15,15)"
        d="M 23,12.5 l 4,1 v 3 l -4,1 z M 17.5,23 l -1,4 h -3 l -1,-4 z M 7,17.5 l -4,-1 v -3
        l 4,-1 z M 12.5,7 l 1,-4 h 3 l 1,4 z"/>
    </g>

    <!-- Move tool icon -->
    <path id="moveIcon"
      d="M 15,1 l -6,6 h 4 v 6 h -6 v -4 l -6,6 6,6 v -4 h 6 v 6 h -4 l 6,6 6,-6 h -4 v -6 h 6 v 4
      l 6,-6 -6,-6 v 4 h -6 v -6 h 4 z"
    />

    <!-- Draw tool icon -->
    <path id="drawIcon"
      d="M 22,3 l -13,13 -2,7 7,-2 13,-13 z M 10,17 l 3,3 -3,1 -1,-1 z M 4,24 v 2 h 22 v -2 z"
    />

    <!-- Delete tool icon -->
    <path id="deleteIcon"
      d="M 12,4 l -2,3 h -3 l -1,2 h 18 l -1,-2 h -3 l -2,-3 z M 13,5 h 4 l 1,2 h -6 z M 7,11 l 3,15
      h 10 l 3,-15 z M 10,13 h 2 l 1,11 h -2 z M 14,13 h 2 v 11 h -2 z M 18,13 h 2 l -1,11 h -2 z"
    />

    <!-- Upload tool icon -->
    <path id="uploadIcon"
      d="M 5,26 v -4 h 20 v 4 z M 15,2 l -6,6 h 4 v 10 h 4 v -10 h 4 z"
    />

    <!-- Star Map icon -->
    <path id="starMapIcon"
      d="
      M 5,16 l -1,10 7,-3 h 1 l 6,3 h 1 l 7,-3 -1,-9 1,-10 -7,3 h -1 l -2,-1
      v 1.5 l 2,1 v 16 l -6,-3 v -6.5 h -1 v 6.5 l -5.5,2.5 1,-8 -0.5,-1 h -1 z
      M 19,8.5 l 5.5,-2.5 -1,8 1,8 -5.5,2.5 z
      M 8,2 L 9.5,5.5 14,6 10.5,9 11.5,13 8,11 4.5,13 5.5,9 2,6 6.5,5.5 z"
    />

    <!-- Satellite icon -->
    <path id="satelliteIcon"
      d="M 9,6 l -3,3 v 1 l 6.5,6.5 -0.5,0.5 v 3 h 2 v -2 l 1,-1 h 1 l 1,1 1,-1 -1,-1 v -1 l 1,-1
      h 2 v -2 h -3 l -0.5,0.5 -6.5,-6.5 z M 7,13 l -2,2 4,4 2,-2 z M 4,16 l -2,2 4,4 2,-2 z
      M 13,7 l 4,4 2,-2 -4,-4 z M 16,4 l 4,4 2,-2 -4,-4 z M 21,16 a -5,5,0,0,1,-5,5 v 2
      a 7,-7,0,0,0,7,-7 z M 25,16 a -9,9,0,0,1,-9,9 v 2 a 11,-11,0,0,0,11,-11 z"
    />

    <!-- Resize icon -->
    <path id="resizeIcon"
      d="M 4,14 v 12 h 12 v -12 z M 6,16 h 8 v 8 h -8 z M 4,12 h 2 v -4 h -2 z M 4,4 v 2 h 4 v -2 z
      M 10,4 v 2 h 4 v -2 z M 16,4 v 2 h 4 v -2 z M 22,4 v 2 h 2 v 2 h 2 v -4 z M 24,10 v 4 h 2
      v -4 z M 24,16 v 4 h 2 v -4 z M 24,22 v 4 h 2 v -4 z M 18,24 v 2 h 4 v -2 z M 16,12 l 2,2
      2,-2 2,2 v -6 h -6 l 2,2 z"
    />

    <!-- Ruler icon -->
    <path id="rulerIcon" transform="rotate(135,15,15)"
      d="M 3,10 v 10 h 24 v -10 z M 4.5,11.5 h 21 v 7 h -2.5 v -3 h -1.5 v 3 h -2.2 v -3 h -1.5 v 3
      h -2.2 v -4.5 h -1.5 v 4.5 h -2.2 v -3 h -1.5 v 3 h -2.2 v -3 h -1.5 v 3 h -2.2 z"
    />

    <!-- Distances icon -->
    <path id="distanceIcon"
      d="M 4,23 a 3,3,0,0,0,6,0 3,3,0,0,0,-6,0 z
      M 4,4 v 3 h 3 a 16,16,0,0,1,16,16 v 3 h 3 v -3 a 19,19,0,0,0,-19,-19 z
      M 10,20 h 6 l -2,-2 10,-10 2,2 v -6 h -6 l 2,2 -10,10 -2,-2 z"
    />

    <!-- Sliders icon -->
    <path id="sliderIcon"
      d="M 3,5 v 2 h 3 v -2 z M 14,5 v 2 h 13 v -2 z M 3,14 v 2 h 13 v -2 z M 24,14 v 2 h 3 v -2 z
      M 3,23 v 2 h 8 v -2 z M 19,23 v 2 h 8 v -2 z
      M 7,6 a 3,3,0,0,0,6,0 3,3,0,0,0,-6,0 z M 17,15 a 3,3,0,0,0,6,0 3,3,0,0,0,-6,0 z M 12,24 a 3,3,0,0,0,6,0 3,3,0,0,0,-6,0 z
      M 9,6 a 1,1,0,0,1,2,0 1,1,0,0,1,-2,0 z M 19,15 a 1,1,0,0,1,2,0 1,1,0,0,1,-2,0 z M 14,24 a 1,1,0,0,1,2,0 1,1,0,0,1,-2,0 z"
    />

    <!-- Save icon -->
    <path id="saveIcon"
      d="M 5,4 l -1,1 v 20 l 1,1 h 20 l 1,-1 v -17 l -4,-4 h -2 v 7 h -10 v -7 z M 8,15 h 14 v 9
      h -14 z M 15,4 v 5 h 3 v -5 z M 10,17 v 1 h 10 v -1 z M 10,19 v 1 h 10 v -1 z M 10,21 v 1
      h 8 v -1 z"
    />

    <!-- Save icon inverted -->
    <path id="saveIconInverted"
      d="M 5,4 l -1,1 v 20 l 1,1 h 20 l 1,-1 v -17 l -4,-4 h -4 v 5 h -3 v -5 z
      M 6,6 h 4 v 5 h 10 v -5 h 2 l 2,2 v 16 h -2 v -9 h -14 v 9 h -2 z
      M 10,17 h 10 v 1 h -10 z M 10,19 h 10 v 1 h -10 z M 10,21 h 8 v 1 h -8 z"
    />

    <!-- Buttons -->

    <!-- Delete Button -->
    <g id="deleteButton">
      <circle fill="#f00" r="15"/>
      <polygon fill="#fff" points="0,3 6,9 9,6 3,0 9,-6 6,-9 0,-3 -6,-9 -9,-6 -3,0 -9,6 -6,9"/>
    </g>

    <!-- Lock open button -->
    <g id="lockOpenButton">
      <circle fill="#00f" r="15"/>
      <path fill="#fff"
        d="M 0,-10 A 5,5 0 0 0 -5,-5 v 4 c -1.1,0 -2,0.9 -2,2 V 7 c 0,1.1 0.9,2 2,2 h 10
        c 1.1,0 2,-0.9 2,-2 V 1 c 0,-1.1 -0.9,-2 -2,-2 h 0 -2 -6 V -5 A 3,3 0 0 1 0,-8
        3,3 0 0 1 3,-5 h 2 A 5,5 0 0 0 0,-10 Z m 0,11 A 2,2 0 0 1 2,3 2,2 0 0 1 1,4.7 V 7 H -1
        V 4.7 A 2,2 0 0 1 -2,3 2,2 0 0 1 0,1 Z"/>
    </g>

    <!-- Lock closed button -->
    <g id="lockClosedButton">
      <circle fill="#f00" r="15"/>
      <path fill="#fff"
        d="m 0,-8 a 5,5 0 0 0 -5,5 v 2 c -1.1,0 -2,0.9 -2,2 V 7 c 0,1.1 0.9,2 2,2 H 5 c 1.1,0
        2,-0.9 2,-2 V 1 c 0,-1.1 -0.9,-2 -2,-2 H 5 V -3 A 5,5 0 0 0 0,-8 Z m 0,2 a 3,3 0 0 1 3,3
        v 2 H -3 V -3 A 3,3 0 0 1 0,-6 Z M 0,1 A 2,2 0 0 1 2,3 2,2 0 0 1 1,4.7 V 7 H -1 V 4.7
        A 2,2 0 0 1 -2,3 2,2 0 0 1 0,1 Z"/>
    </g>

    <!-- Patterns -->

    <!-- Pattern for alert area -->
    <pattern id="warnPattern" x="0" y="0" width="40" height="40" patternUnits="userSpaceOnUse">
      <path fill="#f00" d="M 0,20 L 20,0 40,0 0,40 z M 40,20 40,40 20,40 z"/>
      <path fill="#f99" d="M 0,0 L 20,0 0,20 z M 40,0 L 40,20 20,40 0,40 z"/>
    </pattern>

    <!-- Pattern for deforestation area -->
    <pattern id="deforestationPattern" x="0" y="0" width="40" height="40" patternUnits="userSpaceOnUse">
      <path fill="#A52A2A" d="M 0,0 L 20,0 40,20 40,40 z M 0,20 20,40 0,40 z"/>
      <path fill="#ECF1D2" d="M 0,0 L 0,20 20,40 40,40 z M 20,0 40,20 40,0 z"/>
    </pattern>

    <!-- Pattern for city area -->
    <pattern id="cityPattern" x="0" y="0" width="200" height="200" patternUnits="userSpaceOnUse">
      <rect fill="#c840a8" x="0" y="0" width="200" height="200"/>
      <use href="#houseIcon" fill="#6b0f55" x="0" y="0" transform="scale(2,2)"/>
      <use href="#houseIcon" fill="#6b0f55" x="0" y="0" transform="translate(100,100) scale(2,2)"/>
    </pattern>

    <!-- Pattern for wood area -->
    <pattern id="woodPattern" x="0" y="0" width="200" height="200" patternUnits="userSpaceOnUse">
      <rect fill="#35B934" x="0" y="0" width="200" height="200"/>
      <use href="#treeIcon" fill="#198718" x="0" y="0" transform="scale(2,2)"/>
      <use href="#treeIcon" fill="#198718" x="0" y="0" transform="translate(100,100) scale(2,2)"/>
    </pattern>

    <!-- Graphics -->

    <!-- The animated turbine graphic -->
    <g id="turbineGraphic" transform="scale(5,5) translate(0,-30)">
      <path fill="#fff" d="M -2,30 -1,0 h 2 l 1,30 z"/>
      <path fill="#ccc" d="M 0,30 H 2 L 1,0 H 0 Z"/>
      <path fill="none" stroke="#000" stroke-width="0.3" d="M -2,30 -1,0 h 2 l 1,30 z"/>
      <g>
        <path fill="#fff" stroke="#000" stroke-width="0.3"
          d="m 0,-1 h 3 l 2,-1 14,1 V 0 H 5 0 Z"/>
        <path fill="#fff" stroke="#000" stroke-width="0.3" transform="rotate(120)"
          d="m 0,-1 h 3 l 2,-1 14,1 V 0 H 5 0 Z"/>
        <path fill="#fff" stroke="#000" stroke-width="0.3" transform="rotate(240)"
          d="m 0,-1 h 3 l 2,-1 14,1 V 0 H 5 0 Z"/>
        <animateTransform attributeName="transform" type="rotate"
          from="0" to="360" dur="10s" repeatCount="indefinite"/>
      </g>
      <path fill="#fff" stroke="#000" stroke-width="0.3"
        d="M 2,0 A 2,2 0 0 1 0,2 2,2 0 0 1 -2,0 2,2 0 0 1 0,-2 2,2 0 0 1 2,0 Z"/>
    </g>
  </defs>

  <!-- The rest is only for viewing purposes and will not be added to the application. -->

  <defs>
    <rect id="buttonBackground" x="0" y="0" width="40" height="40" rx="10" ry="10" fill="#090" stroke="#000" stroke-width="2"/>
    <pattern id="grid" x="0" y="0" width="1" height="1" patternUnits="userSpaceOnUse">
      <rect width="1" height="1" fill="none" stroke="#999" stroke-width="0.03"/>
    </pattern>
  </defs>

  <rect width="1400" height="800" fill="none" stroke="#000" stroke-width="0.5"/>

  <g transform="translate(10,10) scale(3)">
    <use href="#turbineIcon" x="0"/>
    <use href="#mapIcon" x="40"/>
    <use href="#mapIconInverted" x="80"/>
    <use href="#houseIcon" x="120"/>
    <use href="#treeIcon" x="160"/>
    <use href="#windIcon" x="200"/>
    <use href="#gearIcon" x="240"/>
    <use href="#moveIcon" x="280"/>
    <use href="#drawIcon" x="320"/>
    <use href="#deleteIcon" x="360"/>
    <use href="#uploadIcon" x="400"/>
    <use href="#starMapIcon" x="360" y="35"/>
    <use href="#satelliteIcon" x="400" y="35"/>
    <use href="#resizeIcon" x="360" y="70"/>
    <use href="#rulerIcon" x="400" y="70"/>
    <use href="#distanceIcon" x="400" y="105"/>
    <use href="#sliderIcon" x="400" y="140"/>
    <use href="#saveIcon" x="400" y="175"/>
    <use href="#saveIconInverted" x="400" y="210"/>
  </g>

  <g transform="translate(10,120)">
    <g transform="translate(0,0)">
      <use href="#buttonBackground"/>
      <use href="#turbineIcon" x="5" y="5" fill="#fff"/>
    </g>
    <g transform="translate(50,0)">
      <use href="#buttonBackground"/>
      <use href="#mapIcon" x="5" y="5" fill="#fff"/>
    </g>
    <g transform="translate(100,0)">
      <use href="#buttonBackground"/>
      <use href="#mapIconInverted" x="5" y="5" fill="#fff"/>
    </g>
    <g transform="translate(150,0)">
      <use href="#buttonBackground"/>
      <use href="#houseIcon" x="5" y="5" fill="#fff"/>
    </g>
    <g transform="translate(200,0)">
      <use href="#buttonBackground"/>
      <use href="#treeIcon" x="5" y="5" fill="#fff"/>
    </g>
    <g transform="translate(250,0)">
      <use href="#buttonBackground"/>
      <use href="#windIcon" x="5" y="5" fill="#fff"/>
    </g>
    <g transform="translate(300,0)">
      <use href="#buttonBackground"/>
      <use href="#gearIcon" x="5" y="5" fill="#fff"/>
    </g>
    <g transform="translate(350,0)">
      <use href="#buttonBackground"/>
      <use href="#moveIcon" x="5" y="5" fill="#fff"/>
    </g>
    <g transform="translate(400,0)">
      <use href="#buttonBackground"/>
      <use href="#drawIcon" x="5" y="5" fill="#fff"/>
    </g>
    <g transform="translate(450,0)">
      <use href="#buttonBackground"/>
      <use href="#deleteIcon" x="5" y="5" fill="#fff"/>
    </g>
    <g transform="translate(500,0)">
      <use href="#buttonBackground"/>
      <use href="#uploadIcon" x="5" y="5" fill="#fff"/>
    </g>
    <g transform="translate(550,0)">
      <use href="#buttonBackground"/>
      <use href="#starMapIcon" x="5" y="5" fill="#fff"/>
    </g>
    <g transform="translate(600,0)">
      <use href="#buttonBackground"/>
      <use href="#satelliteIcon" x="5" y="5" fill="#fff"/>
    </g>
    <g transform="translate(650,0)">
      <use href="#buttonBackground"/>
      <use href="#resizeIcon" x="5" y="5" fill="#fff"/>
    </g>
    <g transform="translate(700,0)">
      <use href="#buttonBackground"/>
      <use href="#rulerIcon" x="5" y="5" fill="#fff"/>
    </g>
    <g transform="translate(750,0)">
      <use href="#buttonBackground"/>
      <use href="#distanceIcon" x="5" y="5" fill="#fff"/>
    </g>
    <g transform="translate(800,0)">
      <use href="#buttonBackground"/>
      <use href="#sliderIcon" x="5" y="5" fill="#fff"/>
    </g>
    <g transform="translate(850,0)">
      <use href="#buttonBackground"/>
      <use href="#saveIcon" x="5" y="5" fill="#fff"/>
    </g>
    <g transform="translate(900,0)">
      <use href="#buttonBackground"/>
      <use href="#saveIconInverted" x="5" y="5" fill="#fff"/>
    </g>
    <use transform="translate(800,60)" href="#deleteButton" x="20" y="20"/>
    <use transform="translate(850,60)" href="#lockOpenButton" x="20" y="20"/>
    <use transform="translate(900,60)" href="#lockClosedButton" x="20" y="20"/>
  </g>

  <g transform="translate(10,180) scale(0.4)">
    <rect x="0" y="0" width="400" height="400" fill="url(#warnPattern)"/>
    <rect x="500" y="0" width="400" height="400" fill="url(#deforestationPattern)"/>
    <rect x="1000" y="0" width="400" height="400" fill="url(#cityPattern)"/>
    <rect x="1500" y="0" width="400" height="400" fill="url(#woodPattern)"/>
  </g>

  <g transform="translate(150,650)">
    <use href="#turbineGraphic"/>
    <circle cx="0" cy="0" r="5" fill="#f00"/>
  </g>

  <g transform="translate(350,360) scale(14)">
    <rect width="30" height="30" fill="#f6f6f6"/>
    <use href="#treeIcon"/>
    <rect width="30" height="30" fill="url(#grid)"/>
    <circle cx="15" cy="15" r="15" fill="none" stroke="#999" stroke-width="0.03"/>
    <path fill="none" stroke="#999" stroke-width="0.03" d="M 0,0 L 30,30 0,30 30,0 30,15 15,30 0,15 15,0 30,15"/>
    <path fill="none" stroke="#999" stroke-width="0.1" d="M 0,4 h 30 M 0,15 h 30 M 0,26 h 30 M 4,0 v 30 M 15,0 v 30 M 26,0 v 30"/>
  </g>
</svg>
