<svg version="1.1" xmlns="http://www.w3.org/2000/svg" width="800" height="600" viewBox="0 0 800 600">
  <!-- The defs section will be added to the SVG context of the application. -->
  <defs>
    <path id="exampleMinorStreets"
      d="m 249.46465,525.16411 24.38648,2.58028 c 5.86305,-5.95589 9.8059,-14.76714
      14.74482,-20.77417 6.70486,-8.15482 13.71219,-13.44242 15.57934,-20.81995 2.35726,-9.31407
      0.97153,-19.96327 0.7479,-31.21137 -0.42852,-23.35979 0.47894,-54.10553 7.36798,-66.27855
      13.4327,-23.73581 -4.3143,-70.08592 14.6058,-89.72913 17.48434,-18.15257 57.66457,-29.18873
      81.56059,-29.55274 31.85927,-0.4853 54.43378,23.11049 75.87742,14.57658 31.78337,-12.6488
      22.8296,-74.6547 56.5002,-103.56041 l 64.95009,-48.74647 M 698.77934,0 c -15.66225,38.149565
      -48.58092,35.296899 -71.90945,64.486231 l -21.01414,5.908369 -18.39749,2.443265 m
      89.54873,20.038454 -40.12328,1.309338 m -9.79487,-29.825125 8.84285,30.148879 c
      1.04772,19.055519 -9.7505,40.668989 -17.71427,59.149899 -13.22771,0.72437 -21.00431,-1.08272
      -35.23922,-3.60431 m -348.2235,362.61297 10.44565,-2.60372 11.95295,2.79972 m
      -9.71607,31.93701 0.9444,-23.06029 20.03156,-19.3194 25.2957,-34.79214 25.79693,9.84046
      7.97622,12.05038 m 2.27383,53.74427 c 31.29941,-15.33543 51.17921,-17.76049 82.85702,-21.62475
      13.63083,2.08059 27.578,11.78052 38.68524,15.15617 0,0 24.65095,11.32562 37.8361,12.65646
      24.26226,2.44891 46.68442,-2.23434 70.43871,3.27829 30.19869,7.00819 57.8205,28.98142
      62.77357,47.26957 M 78.709552,148.72215 l 0.838069,39.07644 m 18.773209,-5.52754
      26.94673,-14.74876 m -28.132482,-9.3516 c 22.344932,-9.73946 33.763992,-23.25182
      44.472402,-34.14217 l 33.41017,-17.33167 m 8.50036,18.31398 C 175.15319,100.90405
      160.87254,87.530086 145.14606,76.604254 L 116.60045,94.45214 95.097244,110.06011 c
      0.428855,39.88996 1.96566,79.0691 5.681126,95.2373 2.8855,12.5565 15.02847,16.63182
      23.87977,35.38639 M 205.04962,0 c -1.23291,45.005994 -12.3234,67.768724 -43.18704,91.042719
      l -31.78912,17.788351 c -13.1201,12.04843 -21.3087,17.63348 -34.412866,27.14972 C
      80.679056,146.86039 60.94807,161.34204 48.973706,170.00002 36.066487,179.33249
      25.605459,183.00402 0,189.24187"
    />
    <path id="exampleMajorStreets"
      d="m 77.389201,0 c -3.766001,14.688599 -1.536522,24.797101 7.083023,36.956836
      10.278887,14.500596 27.742006,24.905783 28.750156,37.008035 2.03101,24.381078
      30.96274,49.738589 64.50747,75.223569 20.16773,15.32207 33.40248,17.73504 53.23104,30.70619
      -25.85244,12.70548 -48.90012,16.0123 -60.91175,29.26371 -13.49921,14.89251 -48.21059,25.23753
      -58.77956,49.3373 -10.39641,23.70629 -16.118293,53.51108 -36.733326,70.91152
      C 59.922076,341.74248 55.564337,367.34171 46.235726,376.85458 32.601209,390.7584
      25.816531,406.01201 0,411.85221 M 230.96089,179.89463 c 22.22171,-13.12123 40.09789,-17.7046
      66.13482,-20.18853 27.15257,-2.59038 53.36247,-2.76047 74.38763,-6.98228 31.46938,-6.31899
      60.60496,-30.86884 81.98927,-37.46441 30.55336,-9.42359 75.05295,-18.72449 102.14313,-12.99347
      10.86055,2.29757 28.42942,21.34145 46.66662,27.59337 23.37362,8.01278 50.76371,10.54721
      69.08281,17.29756 27.48806,10.12899 34.33932,27.10135 54.27678,28.21647 28.22007,1.57837
      44.16257,-4.38026 74.35805,-4.46197"
    />
    <path id="exampleStreets"
      d="m 581.05918,0 c -1.78276,23.400221 12.56005,23.070852 16.25174,41.669669 2.686,13.532153
      11.81817,30.972393 13.57614,49.271853 1.34298,13.979448 -4.26833,29.219818 -4.58725,39.087958
      m 92.44456,35.25572 c -2.83895,9.42853 -2.3591,26.94206 3.44323,42.80894 4.37779,11.97135
      25.19271,9.32221 33.95898,27.76601 10.37378,21.82597 20.05153,43.2153 63.85342,57.79868
      M 80.359051,326.41296 c 15.198585,21.26299 17.645217,68.13336 27.894479,84.10421
      8.98067,13.99404 39.68881,7.24871 60.23595,14.21756 21.70861,7.36274 42.18598,16.29936
      55.63827,28.42579 7.70386,6.94454 14.42222,18.91449 30.13313,25.23106 10.47953,4.21335
      33.11322,10.71769 44.73878,17.33896 11.32558,6.45041 13.61708,19.23659 16.37735,29.23333
      1.67395,6.06244 16.32725,17.65931 26.6108,36.27318 C 351.63913,578.70656 357.00914,600
      357.00914,600"
    />
    <path id="examplePaths"
      d="M 113.64214,95.347215 C 103.078,72.164459 93.882602,63.245768 75.213323,46.89964
      65.147957,35.899765 55.60703,20.388661 52.532479,0 M 800,20.36607 c -9.55117,-1.189043
      -19.40281,1.588581 -29.67549,0.629447 -6.10326,-0.569845 -19.78311,-4.79681
      -25.95693,-5.381467 -8.19107,-0.775689 -19.49786,1.782082 -27.05076,1.300091
      -30.81974,-1.966772 -52.46982,-4.692722 -68.10236,-1.960513 -13.44737,2.350289
      -27.18063,10.055289 -41.28582,12.819234 -19.44428,3.810145 -39.38835,2.735071
      -58.39363,6.022249 M 460.38971,0 481.48227,37.42934 c 9.78542,17.364459 -10.37083,50.588887
      -18.34556,75.39329 -2.11325,32.13638 -12.57547,33.2586 -41.00799,42.59104 -32.56861,6.67755
      -64.85766,9.85914 -97.9263,10.26812 -22.23561,0.275 -42.8585,10.29512 -62.69398,17.37592
      M 800,161.93028 c -11.64348,-5.22446 -24.18297,-0.55115 -38.53648,-1.04687 -15.97198,-0.55162
      -26.71102,-10.20193 -38.34731,-11.66486 -16.51903,-2.07679 -27.92085,-6.83621
      -32.20445,-14.15171 -5.09326,-11.46578 -12.76823,-22.14994 -12.82489,-42.226068
      0.15005,-7.968956 4.02293,-17.977515 9.77617,-25.516286 6.35255,-8.10616 15.3284,-14.58178
      20.44082,-23.016272 4.78881,-7.900596 6.05737,-19.503742 9.01296,-27.394073
      m 5.51237,132.060439 c -6.41265,15.17767 -1.79596,24.73666 -5.41667,38.49203 -2.60009,9.87785
      -9.44799,21.91969 -27.6785,39.76018 L 635.09157,356.42671 468.02798,194.28967
      536.17888,128.43935 M 582.9782,150.055 c -14.60693,-9.94046 -30.26869,-16.03476
      -46.79932,-21.61565 14.54547,-17.62607 15.65287,-28.708348 21.15258,-50.414023
      m 30.1268,-5.187462 -30.1268,5.187462 -7.79645,-44.230216 -267.30423,16.832976
      -44.70734,4.121265 C 209.62325,55.702915 174.64231,38.645533 139.64725,26.093093
      L 83.369955,54.137926 C 56.332484,71.342714 49.768344,82.971216 33.461276,105.32299
      m 44.021165,43.69735 C 69.544825,137.48532 70.404747,126.56476 61.150426,119.94495
      46.291874,109.3163 21.028228,99.287943 0,97.989834 m 79.535829,88.760756
      c -0.418266,42.28096 -14.127297,56.89956 -42.301232,84.96806 L 0,287.33981
      m 37.263291,-15.28762 c -1.992739,26.92283 -6.698126,51.64558 -13.546249,74.63049
      10.394322,26.69187 25.49722,56.55406 39.445914,82.45293 6.472037,12.01678 11.875307,21.1844
      17.929947,32.40072 5.135486,15.82053 -4.836635,41.14019 -6.024242,56.09397
      C 73.27681,543.91143 78.120278,576.69634 76.84629,600 M 0,456.81305 63.236687,429.3885
      122.01828,429.5393 M 0,347.91707 23.569952,346.60501 M 125.23392,140.09813
      c 25.16295,29.16063 36.9534,52.92854 52.66501,81.05107 m -38.84228,-62.84795
      -14.22873,9.24414 M 149.19816,600 147.26888,512.13317 c -0.43408,-9.25338 3.49572,-20.24278
      3.1791,-28.83723 -0.52365,-14.21428 -6.4704,-27.97977 -13.87564,-36.70005 -4.66467,-5.49305
      -10.00117,-6.85406 -14.4324,-17.52877 -5.93142,-14.28861 -9.79326,-36.7508
      -10.95263,-53.90672 -1.62351,-24.02427 3.8559,-49.94188 5.57179,-68.28622 1.98904,-21.26477
      10.73053,-35.90994 21.98863,-53.10134 9.39431,-13.94664 22.28106,-22.35734 39.04019,-32.63817
      13.85688,-8.2791 25.40481,3.3074 36.78557,0.46442 18.84395,-4.70731 33.99496,-21.19296
      46.91439,-38.25113 -2.51357,-23.07422 -7.23271,-53.88778 -3.29113,-74.78252 4.0789,-21.622677
      20.61889,-30.548304 23.90747,-57.890906 L 290.58066,0 M 211.9141,600 c -8.62023,-11.01381
      -44.49045,-38.17259 -63.56619,-36.27118 M 0,523.85117 c 48.998999,18.16566 93.515689,22.91082
      147.55307,18.47086 m 235.51483,-95.87789 15.13403,115.39972 c -27.61575,2.39115
      -38.28694,1.83363 -63.44938,4.67542 -11.07363,1.25065 -25.58247,7.69418 -38.67507,9.83762
      -19.84187,3.24843 -38.19993,1.63419 -50.4122,-3.23773 -10.86195,-4.33319 -21.20203,-17.12198
      -28.41567,-28.03903 -6.44796,-9.75825 -9.94093,-17.24383 -16.4133,-28.33633 m
      34.55603,-3.91404 c -7.59602,1.86161 -27.85416,2.18185 -40.61969,4.85034 -19.96567,4.17358
      -39.63195,10.78678 -46.58246,9.64332 m 13.12765,-106.25129 c 0.0321,-23.6372
      -3.84164,-59.41547 1.92168,-82.09194 48.93011,16.83951 94.64429,40.6823 140.92872,63.50891
      l 173.5218,96.6652 L 521.47564,600 M 220.45548,264.62648 c 33.62161,14.70766
      65.58399,32.47779 97.64433,50.2202 M 325.9566,205.0299 c 21.10741,21.99126 43.07499,42.16035
      63.41011,64.84669 27.86646,39.16264 50.44729,77.24727 82.69127,106.04019 31.6018,28.21948
      90.04388,68.6184 111.02926,75.8503 L 800,510.09041 M 704.85886,484.36796 726.92654,600
      m -328.4402,-38.10021 c 33.99333,1.30897 55.9056,12.68572 82.25907,11.16699 9.4136,-0.54251
      23.38833,-8.97592 33.87198,-13.03695 l 49.31331,-26.85021 71.16087,-176.75291 c
      32.36504,24.07976 65.44404,38.40545 103.674,43.24332 L 800,376.88858"
    />

    <g id="exampleMap">
      <rect fill="#edf0cf" width="800" height="600" x="0" y="0" />
      <path fill="#cea"
        d="m 427.88857,0 h 99.03991 c 0,0 7.91127,28.779447 6.56534,43.323269 -1.28413,13.875848
        -11.70236,25.697054 -13.74281,39.481996 -2.57375,17.387575 9.07876,36.526825
        2.16416,52.686655 -7.63801,17.85038 -27.22126,28.26606 -43.74804,38.45625 -12.36831,7.62612
        -26.12678,13.70045 -40.41762,16.32816 -16.50679,3.03517 -33.56436,-1.52669
        -50.34021,-1.01964 -22.82403,0.68984 -46.58859,-1.61147 -68.28051,5.52103 -9.67601,3.18156
        -18.35774,9.33192 -25.97577,16.09306 -8.0953,7.18472 -11.93216,18.46111 -20.25848,25.37678
        -9.712,8.06657 -21.42049,13.91432 -33.43401,17.79606 -14.38407,4.6477 -31.00122,0.27341
        -44.93066,6.1448 -9.71511,4.095 -18.61987,11.00813 -24.94946,19.43953 -7.02035,9.35156
        -9.73393,21.35679 -12.98019,32.59061 -3.77611,13.06741 -5.91857,26.60479 -7.4498,40.12039
        -1.57519,13.90352 -4.08714,28.14208 -1.76382,41.94031 2.34165,13.90707 9.70635,26.51047
        15.52233,39.35818 4.89,10.80219 8.8284,22.3971 16.25319,31.64221 11.89503,14.81132
        28.11038,25.77192 43.8786,36.36578 19.81891,13.31528 50.18592,13.73945 63.16333,33.78127
        C 297.93144,553.538 290.70409,600 290.70409,600 h -96.72943 c 0,0 -3.58763,-16.93266
        -7.78774,-24.34586 -6.01301,-10.61296 -18.0253,-16.93962 -24.16694,-27.47868
        -5.75386,-9.87356 -6.30177,-22.08227 -11.23636,-32.38976 -6.46419,-13.50259
        -15.57123,-25.58052 -23.8203,-38.07288 -8.30318,-12.57426 -17.74277,-24.38449
        -25.82755,-37.10026 -6.472042,-10.17929 -16.629934,-19.35284 -18.122799,-31.32265
        -1.877544,-15.05423 9.353651,-28.92748 12.418682,-43.78549 2.895878,-14.03799
        2.673755,-28.6025 5.595757,-42.63509 2.72604,-13.09145 6.72652,-25.91313 11.09001,-38.55343
        3.74664,-10.85341 6.24447,-22.59106 12.92684,-31.92806 7.93394,-11.08575 19.63372,-19.12549
        30.93083,-26.75546 11.75043,-7.93615 24.07474,-16.01203 37.83095,-19.45031 8.27701,-2.06879
        17.6324,2.68844 25.59205,-0.38286 10.89727,-4.20478 16.45132,-16.87957 26.30817,-23.14639
        9.02665,-5.739 21.24264,-5.92318 29.4163,-12.82302 8.59499,-7.25551 10.16289,-20.66284
        18.48379,-28.23113 9.32448,-8.4811 22.4536,-11.47347 33.45225,-17.63014 26.48078,-14.82303
        59.7084,-22.4718 78.29302,-46.462752 C 421.8284,56.235821 427.88857,0 427.88857,0 Z"
      />
      <path
        fill="#9d9"
        d="M 800,0 H 673.62801 c 5.00092,14.173813 8.08249,36.04953 -4.14814,47.028654
        -11.36103,10.198499 -25.6187,21.813003 -24.21653,36.10038 0.70987,7.23309
        -2.27407,31.090476 9.01323,43.316276 9.13292,9.8923 25.91516,10.07161 33.24253,15.89248
        5.4296,4.31325 16.5642,12.68542 29.93828,18.52251 12.10356,5.56682 23.96629,7.74427
        35.78896,4.55767 15.25001,-4.11038 33.266,-8.47515 46.75366,-10.09003 z M
        457.34031,525.98049 c -13.51586,-6.32168 -38.17637,-11.91043 -53.3331,-22.16104
        -17.25907,-11.67243 -21.82923,-21.96049 -36.44785,-27.33702 -15.69278,-5.77156
        -33.82246,-6.48106 -56.92257,3.22095 l -59.2969,43.99748 C 266.89287,549.52774
        275.65403,568.13337 274.05548,600 H 421.4131 Z"
      />
      <path
        fill="#cda"
        d="M 0,34.921262 43.831802,55.376916 92.949459,103.65578 76.141337,121.79732
        C 58.868653,119.6431 47.332783,123.8109 34.704792,126.23721 24.188342,128.25781
        14.763435,131.00235 0,133.1652 Z"
      />
      <path
        fill="#fea"
        d="m 732.54866,32.197939 c -13.9858,-3.104223 -26.15713,-1.234404 -37.03257,3.54215
        -5.81707,19.531968 -11.29391,35.455684 -10.48176,54.404278 1.7591,21.534723
        2.92667,34.769843 12.83867,40.536373 5.51392,3.20784 14.39751,2.54904 26.00489,3.44713 z"
      />
      <path
        fill="#dfb"
        d="M 67.080233,58.319611 91.149172,44.967655 111.17927,67.345667 115.23661,82.819325
        85.691606,112.5533 46.937591,76.852074 Z"
      />
      <path
        fill="#9c9"
        d="m 195.58608,0 h 258.18764 c 0,0 8.97918,24.646403 8.92573,37.493336 -0.0763,18.31338
        -0.744,39.88441 -13.16787,53.339275 -14.59563,15.806869 -42.06308,10.640349
        -61.23406,20.405769 -13.67764,6.9672 -23.28365,20.89961 -37.46314,26.77854
        -12.08085,5.00882 -26.16672,10.2045 -38.69814,6.46303 -14.73436,-4.3992 -19.50081,-25.8697
        -33.8865,-31.3017 -16.84004,-6.35876 -35.99402,1.8147 -53.9866,1.27842 -12.12418,-0.36137
        -25.68862,2.91626 -36.26259,-3.02657 -10.57435,-5.94304 -17.22,-18.031352
        -21.43927,-29.403883 C 162.45561,70.959889 160.68984,58.140374 163.71321,46.730759
        168.54283,28.504659 195.58608,0 195.58608,0 Z M 0,318.37551 c 0,0 32.369756,-0.66775
        46.006433,6.6941 11.937812,6.44471 19.966137,18.85401 26.996308,30.4567 12.74541,21.03519
        13.83885,47.73186 26.287069,68.94427 9.99947,17.03962 34.58801,25.99234 38.05191,45.4433
        2.9492,16.56072 -7.70356,33.51035 -17.0492,47.49656 -12.32143,18.43964 -29.926882,33.8507
        -49.253092,44.72894 C 49.517263,574.25367 0,583.18775 0,583.18775 Z m 740.40645,-21.28678
        c 3.15572,-15.85126 19.37178,-22.83729 35.49025,-24.02694 9.72344,-0.71765 24.1033,7.56034
        24.1033,7.56034 V 600 H 414.57802 l -5.3449,-56.38413 48.93861,-38.54177 69.61595,-35.3097
        0.77726,-56.965 20.58384,-47.21159 37.94343,-26.34722 35.05471,-4.30305 50.78578,28.07691
        45.61281,-11.84055 16.15015,-25.39981 z"
      />
      <path
        fill="#ddd"
        d="m 626.75197,37.480469 -63.43359,20.558591 30.69921,64.25782 -32.65625,25.93359
        6.03712,24.33398 67.8867,-6.67187 18.55861,-51.48242 0.85936,-52.826175 z
        m -477.22658,23.550779 -55.035153,23.14258 -29.144532,44.558592 -3.636722,70.80078
        27.115239,10.32813 44.988278,-22.22266 15.11523,-46.99219 55.81641,-6.96875
        -23.5918,-51.554685 z m 140.44142,389.984352 -28.92189,30.23244 -43.9707,28.49023
        21.0254,47.45117 58.21679,-17.17383 7.65235,-35.83982 40.74219,-7.79297
        -10.65235,-25.95315 z"
      />
      <path
        fill="#dcb" stroke="#cba" stroke-width="0.5"
        d="m 628.56251,42.443357 -7.28711,3.404297 2.9961,6.410158 7.28516,-3.404296 z
        m -12.12892,4.06836 -8.88669,3.750001 4.37692,10.369142 8.88673,-3.751956 z
        m -22.74606,7.757812 -10.07229,3.351565 2.84375,8.544922 10.07033,-3.351564 z
        m 47.53708,2.220703 -6.58201,6.611328 7.97851,7.941407 6.58008,-6.609373 z
        m -63.26952,2.902345 -6.18164,2.724609 2.46485,5.593749 6.18165,-2.724608 z
        m -428.44337,5.578125 -3.91211,3.585937 3.25977,3.554687 3.9121,-3.585936 z
        m -13.38281,5.253907 -7.43164,4.171872 2.98828,5.328129 7.43359,-4.169923 z
        m 485.28323,1.425781 -5.90627,1.576173 1.24607,4.664061 5.90627,-1.576172 z
        m -461.96683,0.253909 -4.02929,4.80664 7.14843,5.992188 4.0293,-4.806641 z
        m -31.20312,2.308595 -6.56446,3.837892 2.78321,4.759763 6.56445,-3.837891 z
        m 469.99415,1.822266 -5.8086,1.900391 1.79882,5.503903 5.81057,-1.900388 z
        m 51.00389,1.416015 -8.99021,0.597656 0.55272,8.341796 8.99025,-0.595703 z
        m -61.73242,2.240235 -6.11131,1.998048 1.29884,3.974608 6.11327,-1.998048 z
        m 39.78713,3.425779 -3.79491,0.335925 0.46091,6.904297 3.79688,-0.335924 z
        m -482.12111,0.697266 -6.3125,3.857424 4.52734,7.408203 6.3125,-3.857424 z
        m -41.44336,1.59961 -4.781249,2.970705 4.669919,7.511716 4.78125,-2.972655 z
        m 74.49414,1.26367 -5.89063,3.621097 3.45118,5.615233 5.89062,-3.621094 z
        m 422.89453,1.10547 -7.33591,2.398439 2.59959,7.947266 7.33399,-2.398439 z
        m -466.5,2.935548 -6.83984,3.580078 2.68554,5.128906 6.83985,-3.582032 z
        m 492.96682,0.08787 -9.61916,0.738281 1.18359,15.390636 9.6172,-0.73828 z
        m -532.986348,3.773439 -8.43555,6.173838 4.560548,6.23047 8.433597,-6.17383 z
        m 602.033218,2.724608 -9.45509,1.900392 1.8379,9.144538 9.45702,-1.90039 z
        m -534.81447,0.414062 -6.23828,3.669928 2.20117,3.74219 6.23828,-3.66992 z
        m 23.59375,1.947266 -5.80664,2.474612 2.98047,6.99024 5.80664,-2.47461 z
        m 455.75978,2.085942 -1.42968,5.61133 6.54686,1.66602 1.42968,-5.60938 z
        m -523.459,0.22658 -3.67383,3.125 4.0625,4.77539 3.67383,-3.125 z
        m 482.88671,2.31445 -6.75583,0.0645 0.0877,9.32227 6.75587,-0.0625 z
        m -455.65624,1.07422 -4.22852,3.46679 6.11524,7.4629 4.23047,-3.4668 z
        m -38.79492,5.73047 -7.230468,5.09375 4.539058,6.4414 7.22852,-5.09375 z
        m 515.40626,1.40625 -1.10547,4.69531 5.94334,1.39844 1.10548,-4.69532 z
        m -532.464853,2.93359 -9.291016,0.79297 0.669921,7.85156 9.291016,-0.79297 z
        m 548.904293,0.10742 -1.66795,6.54882 7.16992,1.82617 1.66798,-6.54882 z
        m -508.96875,0.78319 -4.16992,3.54102 5.41211,6.375 4.16992,-3.53905 z
        m 39.71094,1.00391 -5.93945,2.86328 1.88867,3.91407 5.9375,-2.86524 z
        m 26.5664,3.54102 -7.00781,3.60157 3.5293,6.86719 7.00782,-3.60158 z
        m 420.1582,1.1289 -1.49609,4.92384 7.99805,2.43163 1.49609,-4.92187 z
        m -493.24804,0.88673 -5.67773,4.48438 2.6914,3.4082 5.67774,-4.48438 z
        m 56.64844,0.91796 -11.37305,5.66406 3.1543,6.33399 11.37304,-5.66406 z
        m -92.214845,3.57422 -9.291013,0.79103 0.669921,7.85156 9.291013,-0.79298 z
        m 27.894535,1.98242 -5.67774,4.48439 2.69141,3.4082 5.67773,-4.48439 z
        m 475.58593,0.89063 -3.91797,3.33399 2.91601,3.42772 3.91798,-3.33398 z
        m -448.83984,0.84765 -6.94922,7.14844 5.53516,5.38086 6.94922,-7.14647 z
        m 441.50393,3.80274 -5.3926,4.58789 4.16992,4.9004 5.39259,-4.5879 z
        m -477.5801,2.44141 -6.14258,4.67577 5.16211,6.78321 6.14258,-4.67578 z
        m 507.61717,0.86914 -1.77732,5.17187 5.47264,1.88086 1.77736,-5.16992 z
        m -9.60155,0.9336 -4.98047,3.54296 3.91605,5.50391 4.98047,-3.54297 z
        m 26.26761,6.05272 -2.60742,5.52539 7.56638,3.57032 2.60743,-5.52344 z
        m -58.51174,0.41992 -5.63475,4.79493 3.33396,3.91796 5.63479,-4.79492 z
        m -479.804696,0.19337 -7.662108,4.96484 0.730469,7.86915 7.36133,-2.69142 z
        m 34.451176,2.91016 -6.25391,4.52148 3.67578,5.08202 6.25195,-4.52148 z
        m -9.19922,5.51172 -6.25391,4.52147 3.67578,5.08203 6.25196,-4.52148 z
        m 464.8789,2.22069 -8.51168,6.33789 4.41792,5.93361 8.51173,-6.33986 z
        m 12.83985,0.72852 -0.70118,6.06836 8.62696,0.99609 0.70118,-6.06836 z
        m 21.49221,1.76367 v 5.4668 h 10.28905 v -5.4668 z m -509.68753,1.35351
        -5.64843,1.26172 1.57617,7.0625 5.64844,-1.25976 z m -37.574211,3.91603
        v 6.59179 h 6.109372 v -6.59179 z m 16.203122,0.12695 v 6.10938 h 6.75586
        v -6.10938 z m 43.542969,9.23828 -5.03516,3.73438 3.73633,5.03711 5.03516,-3.73438 z
        m -43.185547,3.01758 v 6.10938 h 6.755861 v -6.10938 z m -18.330078,1.44922
        v 5.30664 h 6.591799 v -5.30664 z m 45.937505,3.82422 -8.97071,5.03906
        4.25391,7.57032 8.9707,-5.03907 z m -26.318362,7.58984 v 6.4336 h 5.466796
        v -6.4336 z m -18.16797,0.9668 v 4.98438 h 5.78711 v -4.98438 z m 219.574222,266.1992
        -2.0293,3.35547 4.18946,2.53515 2.0293,-3.3535 z m 8.10742,0.95705 -0.99804,6.28906
        6.06444,0.96287 0.99806,-6.28905 z m -12.67578,6.62306 -4.76953,7.74217 3.29297,2.02734
        4.76953,-7.74217 z m 30.17969,0.45702 -1.83203,3.39647 4.81249,2.5957 1.83204,-3.39454 z
        m 12.23633,5.21287 -3.7832,3.72269 3.83789,3.89843 3.78125,-3.72268 z m -29.3086,2.2715
        -1.71485,3.45702 3.45705,1.71485 1.71484,-3.45899 z m -21.59766,0.75001 -2.45116,4.70702
        5.41991,2.82225 2.45118,-4.70702 z m 16.35352,5.72655 -1.27734,3.12499 3.42383,1.39846
        1.27735,-3.12502 z m 18.92774,2.58592 -0.50586,5.60549 6.4043,0.57615 0.50586,-5.60349 z
        m 24.3418,0.27363 -5.20117,2.53909 2.61133,5.34765 5.20117,-2.53908 z m -39.83009,0.63088
        -1.70312,4.16795 5.50782,2.25003 1.70312,-4.16799 z m -31.75781,5.50779 -6.48633,6.24613
        5.24219,5.44138 6.48633,-6.24608 z m 48.24024,3.58594 -1.50976,3.19922 6.54491,3.08792
        1.50977,-3.19922 z m 16.03711,1.97462 -3.50976,1.60157 1.06836,2.3418 3.50976,-1.60354 z
        m -76.85742,0.44141 -5.66211,4.31837 5.29296,6.94334 5.66406,-4.31834 z m 32.32813,0.0741
        -2.12501,4.43165 6.89649,3.30667 2.125,-4.43165 z m -42.65236,6.66603 -6.78514,3.09963
        1.83202,4.00781 6.78321,-3.09963 z m 36.08986,1.09568 -3.87891,5.33401 6.50195,4.72657
        3.8789,-5.33398 z m 22.79492,1.63869 -4.38869,5.44335 3.06446,2.47268 4.39063,-5.44531 z
        m -30.85939,8.64843 -4.35741,5.77346 6.54491,4.93942 4.35743,-5.77342 z
        m 23.13086,2.07424 -3.32616,4.33788 3.95702,3.03322 3.32422,-4.33791 z
        m -53.63672,3.36522 v 4.82226 h 5.95118 v -4.82226 z
        m -9.16405,2.41213 v 5.46678 h 4.66015 v -5.46678 z
        m 57.04492,6.20115 -4.82423,6.02736 4.8965,3.91797 4.82421,-6.02736 z
        m -29.90039,6.03711 -1.10547,9.25977 16.44921,1.96093 1.10352,-9.26169 z
        m -13.99414,3.83985 -6.33984,1.07225 1.25975,7.45316 6.33986,-1.07229 z"
      />
      <path
        fill="none" stroke="#9cd" stroke-width="8"
        d="m 234.76546,600 c 0.0355,-32.85604 -27.64856,-26.64782 -38.20248,-45.46738
        -10.96038,-19.54431 -30.21819,-39.12438 -30.47373,-59.34296 -0.30928,-24.46935
        -2.64166,-43.43229 -20.19918,-61.61265 -16.64039,-17.23068 -22.87938,-45.82473
        -15.3002,-74.28658 3.86434,-14.51159 5.09428,-48.51257 8.50068,-61.66412 3.99114,-15.40919
        18.73582,-34.88626 28.98811,-42.9952 16.55871,-13.09694 44.61897,-10.21848 71.19154,-23.2588
        12.59114,-6.17901 34.46743,-33.40517 50.06736,-41.94759 26.71698,-14.63004
        58.97416,-13.72049 83.15182,-15.89269 42.55155,-3.82297 67.32836,3.41495 94.31479,-18.15365
        12.93203,-10.33576 25.09452,-17.89141 30.18777,-34.01733 4.54568,-14.39212
        2.54313,-37.310956 4.94101,-48.232249 C 509.39238,39.154741 507.664,26.314715 496.14109,0"
      />
      <path
        fill="#9cd"
        d="m 704.81566,80.603097 c 1.08317,-10.768785 8.47752,-19.917132 12.71626,-29.875695
        3.26963,-7.681758 2.67201,-18.713464 9.80893,-23.045273 6.49281,-3.94086 15.14494,1.173716
        22.71742,1.760574 6.2999,0.488236 12.80182,-0.191418 18.89971,1.464706 5.58943,1.51803
        10.41525,5.070253 15.62287,7.60538 C 789.72059,41.014859 800,46.018998 800,46.018998
        V 147.0109 c 0,0 -17.47952,1.33844 -26.21926,2.00766 -7.08511,0.54252 -14.25064,2.82257
        -21.25527,1.62756 -6.79261,-1.15884 -12.6152,-5.54867 -18.92278,-8.32301 -5.91692,-2.6025
        -13.69047,-2.77793 -17.75081,-7.80752 -5.86991,-7.27114 -3.74816,-18.30991
        -5.62224,-27.46487 -1.80465,-8.815874 -6.31453,-17.494111 -5.41398,-26.447623 z"
      />
      <use href="#examplePaths" fill="none" stroke="#a96" stroke-width="1" stroke-dasharray="5 3"/>
      <use href="#exampleMinorStreets" fill="none" stroke="#ccc" stroke-width="4"/>
      <use href="#exampleStreets" fill="none" stroke="#9a3" stroke-width="6"/>
      <use href="#exampleMajorStreets" fill="none" stroke="#b83" stroke-width="6"/>
      <use href="#exampleMinorStreets" fill="none" stroke="#fff" stroke-width="3"/>
      <use href="#exampleStreets" fill="none" stroke="#ffc" stroke-width="5"/>
      <use href="#exampleMajorStreets" fill="none" stroke="#fd9" stroke-width="5"/>
      <text x="90" y="140"
        fill="#999" stroke="#fff" stroke-width="3" stroke-linejoin="round"
        font-family="sans-serif" font-size="10"
        style="paint-order: stroke fill;">
        Zephyrhills
      </text>
      <text x="600" y="100"
        fill="#999" stroke="#fff" stroke-width="3" stroke-linejoin="round"
        font-family="sans-serif" font-size="10"
        style="paint-order: stroke fill;">
        Breezewood
      </text>
      <text x="250" y="510"
        fill="#999" stroke="#fff" stroke-width="3" stroke-linejoin="round"
        font-family="sans-serif" font-size="10"
        style="paint-order: stroke fill;">
        Windyville
      </text>
    </g>
  </defs>

  <!-- The rest is only for viewing purposes and will not be added to the application. -->
  <use href="#exampleMap"/>
</svg>
